<svg xmlns="http://www.w3.org/2000/svg" viewBox="0 0 512 512"><path d="M415.462 96.978c-88.1-88.1-230.824-88.1-318.924 0-87.22 87.22-87.22 229.943 0 318.044 88.1 88.1 230.824 88.1 318.924 0 87.22-88.1 87.22-230.824 0-318.044zM246.31 437.047c-24.668 0-44.05-20.263-44.05-44.05 0-24.669 19.382-44.05 44.05-44.05 24.668 0 44.05 19.381 44.05 44.05 0 23.787-20.263 44.05-44.05 44.05zm30.835-154.176v23.787c0 12.334-4.405 16.74-15.858 16.74h-32.597c-11.453 0-15.858-4.406-15.858-16.74v-53.742c0-14.096 14.096-18.5 26.43-22.025 2.643-.88 6.167-1.762 8.81-2.643 16.74-6.167 26.43-13.215 26.43-30.835 0-6.167 0-23.787-29.073-23.787-17.62 0-33.478 7.048-43.17 10.572-5.285 2.643-7.929 3.524-11.453 3.524-5.286 0-10.572-4.405-11.453-9.691L167.9 148.958c-.88-2.643-.88-5.286-.88-7.048 0-21.145 66.075-33.479 88.1-33.479 55.503 0 93.387 36.122 93.387 88.982 0 58.146-44.05 75.767-71.362 85.458z"/></svg>