<?xml version="1.0" encoding="UTF-8" standalone="no"?>
<svg
   xmlns:dc="http://purl.org/dc/elements/1.1/"
   xmlns:cc="http://creativecommons.org/ns#"
   xmlns:rdf="http://www.w3.org/1999/02/22-rdf-syntax-ns#"
   xmlns:svg="http://www.w3.org/2000/svg"
   xmlns="http://www.w3.org/2000/svg"
   xmlns:sodipodi="http://sodipodi.sourceforge.net/DTD/sodipodi-0.dtd"
   xmlns:inkscape="http://www.inkscape.org/namespaces/inkscape"
   class="ck ck-icon ck-button__icon"
   viewBox="0 0 20 20"
   version="1.1"
   id="svg10"
   sodipodi:docname="source.svg"
   inkscape:version="0.92.3 (2405546, 2018-03-11)">
  <defs
     id="defs14" />
  <sodipodi:namedview
     pagecolor="#ffffff"
     bordercolor="#666666"
     borderopacity="1"
     objecttolerance="10"
     gridtolerance="10"
     guidetolerance="10"
     inkscape:pageopacity="0"
     inkscape:pageshadow="2"
     inkscape:window-width="640"
     inkscape:window-height="480"
     id="namedview12"
     showgrid="false"
     inkscape:zoom="33.37544"
     inkscape:cx="10.656564"
     inkscape:cy="13.670445"
     inkscape:current-layer="svg10" />
  <g
     id="g8"
     style="fill:#000000;fill-rule:evenodd"
     transform="matrix(0.8751128,0,0,0.8751128,4.2423992,5.525391)">
    <g
       id="g6"
       style="fill:#000000">
      <g
         transform="translate(2,5.6)"
         id="g4"
         style="fill:#000000">
        <path
           d="M 10.5,0.1 15.7,4 v 1.3 l -5.6,4 C 10,9.5 9.8,9.5 9.6,9.5 9.3,9.4 9,8.8 9,8.5 L 9.3,8.1 14,4.6 9.5,1.4 9.3,1.2 C 9.2,0.9 9.2,0.6 9.3,0.4 9.5,0.2 9.8,0 10.1,0 a 0.8,0.8 0 0 1 0.4,0.1 z M 5.3,0.1 0,4 v 1.3 l 5.6,4 C 5.7,9.5 5.9,9.5 6.1,9.5 6.4,9.4 6.8,8.8 6.7,8.5 6.7,8.4 6.7,8.2 6.5,8.1 L 1.5,4.6 6.2,1.4 6.4,1.2 C 6.5,0.9 6.5,0.6 6.4,0.4 6.2,0.2 5.9,0 5.6,0 A 0.8,0.8 0 0 0 5.3,0.1 Z"
           id="path2"
           inkscape:connector-curvature="0"
           style="fill:#000000" />
      </g>
    </g>
  </g>
  <metadata
     id="metadata4596">
    <rdf:RDF>
      <cc:Work
         rdf:about="">
        <dc:title></dc:title>
        <dc:format>image/svg+xml</dc:format>
        <dc:type
           rdf:resource="http://purl.org/dc/dcmitype/StillImage" />
      </cc:Work>
    </rdf:RDF>
  </metadata>
  <path
     style="stroke-width:0.0390625"
     d="M 1.2772336,0.02277222 V 20.022772 H 6.2381712 V 18.225897 H 3.0741087 V 1.8196472 h 8.2031253 l 3.554687,3.59375 v 3.5546875 h 1.796875 V 4.6712097 L 12.019421,0.02277222 Z"
     id="path2-3"
     inkscape:connector-curvature="0" />
</svg>
